<svg id="_4781851_calendar_date_day_event_month_icon" data-name="4781851_calendar_date_day_event_month_icon" xmlns="http://www.w3.org/2000/svg" width="24" height="24" viewBox="0 0 24 24">
  <g id="Layer_2" data-name="Layer 2" transform="translate(2.227 2.227)">
    <path id="Path_160" data-name="Path 160" d="M18.591,22.818H6.712A3.712,3.712,0,0,1,3,19.106V8.712A3.712,3.712,0,0,1,6.712,5H18.591A3.712,3.712,0,0,1,22.3,8.712V19.106A3.712,3.712,0,0,1,18.591,22.818ZM6.712,6.485A2.227,2.227,0,0,0,4.485,8.712V19.106a2.227,2.227,0,0,0,2.227,2.227H18.591a2.227,2.227,0,0,0,2.227-2.227V8.712a2.227,2.227,0,0,0-2.227-2.227Z" transform="translate(-3 -3.515)" fill="#1271ff"/>
    <path id="Path_161" data-name="Path 161" d="M22.712,23.455h-2.97A.742.742,0,0,1,19,22.712v-2.97A.742.742,0,0,1,19.742,19h2.97a.742.742,0,0,1,.742.742v2.97A.742.742,0,0,1,22.712,23.455ZM20.485,21.97H21.97V20.485H20.485Z" transform="translate(-16.228 -10.227)" fill="#1271ff"/>
    <path id="Path_162" data-name="Path 162" d="M21.561,12.485H3.742a.742.742,0,0,1,0-1.485H21.561a.742.742,0,0,1,0,1.485Z" transform="translate(-3 -5.061)" fill="#1271ff"/>
    <path id="Path_163" data-name="Path 163" d="M10.742,7.455A.742.742,0,0,1,10,6.712V3.742a.742.742,0,0,1,1.485,0v2.97A.742.742,0,0,1,10.742,7.455Z" transform="translate(-4.803 -3)" fill="#1271ff"/>
    <path id="Path_164" data-name="Path 164" d="M20.742,7.455A.742.742,0,0,1,20,6.712V3.742a.742.742,0,0,1,1.485,0v2.97A.742.742,0,0,1,20.742,7.455Z" transform="translate(-7.379 -3)" fill="#1271ff"/>
  </g>
  <g id="frame">
    <rect id="Rectangle_64" data-name="Rectangle 64" width="24" height="24" fill="none"/>
  </g>
</svg>
