<svg id="Call" xmlns="http://www.w3.org/2000/svg" width="24" height="24" viewBox="0 0 24 24">
  <path id="Path_33" data-name="Path 33" d="M0,12A12,12,0,0,1,12,0h0A12,12,0,0,1,24,12h0A12,12,0,0,1,12,24h0A12,12,0,0,1,0,12Z" fill="none"/>
  <path id="Path_34" data-name="Path 34" d="M13.2,13.627a2.394,2.394,0,0,1,1.872-2.556.9.9,0,0,1,1.108.545l.4,1.058a.912.912,0,0,1-.237.992l-1.181,1.081a.457.457,0,0,0-.139.429l.011.047.028.119a6.38,6.38,0,0,0,1.848,3.13l.037.033a.456.456,0,0,0,.44.094l1.527-.481a.913.913,0,0,1,.978.291l.723.877a.894.894,0,0,1-.081,1.223,2.4,2.4,0,0,1-3.153.336,11.615,11.615,0,0,1-2.76-3.219,11.334,11.334,0,0,1-1.418-4Zm2.777,1.61.978-.9a1.824,1.824,0,0,0,.475-1.985l-.4-1.058A1.814,1.814,0,0,0,14.8,10.2a3.3,3.3,0,0,0-2.508,3.565,12.251,12.251,0,0,0,1.531,4.322A12.527,12.527,0,0,0,16.8,21.556a3.3,3.3,0,0,0,4.347-.379,1.805,1.805,0,0,0,.163-2.47l-.723-.877a1.826,1.826,0,0,0-1.957-.58l-1.268.4a6.026,6.026,0,0,1-.854-1.115,5.718,5.718,0,0,1-.538-1.3Z" transform="translate(-4.967 -4.128)" fill="#1271ff"/>
</svg>
