<svg xmlns="http://www.w3.org/2000/svg" width="24" height="24" viewBox="0 0 24 24">
  <g id="close_eye" data-name="close eye" transform="translate(-3210 -1232)">
    <rect id="Rectangle_19" data-name="Rectangle 19" width="24" height="24" transform="translate(3210 1232)" fill="none"/>
    <path id="el_eye-close" d="M10.046,4.1Q9.531,4.047,9,4.039a11.048,11.048,0,0,0-4.664,1.1A11.878,11.878,0,0,0,1.161,7.455,3.92,3.92,0,0,0,0,9.431a3.952,3.952,0,0,0,1.161,1.976A11.7,11.7,0,0,0,4.336,13.72l.124.059L3.334,15.746l1.53.9,8.271-14.4-1.473-.9Zm3.492.982L12.415,7.033a3.915,3.915,0,0,1,.824,2.4A4.15,4.15,0,0,1,9,13.485c-.1,0-.2-.011-.3-.018l-.744,1.288c.343.037.69.063,1.044.068a11.1,11.1,0,0,0,4.663-1.1,11.885,11.885,0,0,0,3.176-2.313A3.92,3.92,0,0,0,18,9.431a3.952,3.952,0,0,0-1.161-1.976,11.7,11.7,0,0,0-3.176-2.313C13.622,5.122,13.58,5.1,13.538,5.085ZM9,5.377c.1,0,.2,0,.305.011L8.433,6.9A2.62,2.62,0,0,0,6.293,9.43a2.485,2.485,0,0,0,.164.89s0,0,0,0l-.873,1.513a3.919,3.919,0,0,1-.824-2.4A4.15,4.15,0,0,1,9,5.377Zm2.534,3.181-1.963,3.4A2.617,2.617,0,0,0,11.7,9.43,2.474,2.474,0,0,0,11.533,8.558Z" transform="translate(3213 1235)" fill="#a6a6a6"/>
  </g>
</svg>
