<svg width="40" height="40" viewBox="0 0 40 40" fill="none" xmlns="http://www.w3.org/2000/svg">
<rect width="40" height="40" rx="20" fill="#1271FF" fill-opacity="0.1"/>
<g clip-path="url(#clip0_260_933)">
<path d="M29.5714 12H10.8951C10.5413 12 10.2019 12.1405 9.95176 12.3905C9.70158 12.6406 9.56104 12.9797 9.56104 13.3333V26.6667C9.56104 27.0203 9.70158 27.3594 9.95176 27.6095C10.2019 27.8595 10.5413 28 10.8951 28H29.5714C29.9252 28 30.2645 27.8595 30.5147 27.6095C30.7649 27.3594 30.9054 27.0203 30.9054 26.6667V13.3333C30.9054 12.9797 30.7649 12.6406 30.5147 12.3905C30.2645 12.1405 29.9252 12 29.5714 12V12ZM28.5442 26.6667H12.0023L16.6714 21.84L15.7109 20.9133L10.8951 25.8933V14.3467L19.186 22.5933C19.436 22.8417 19.7741 22.9811 20.1265 22.9811C20.4789 22.9811 20.8171 22.8417 21.067 22.5933L29.5714 14.14V25.8067L24.6622 20.9L23.7217 21.84L28.5442 26.6667ZM11.7688 13.3333H28.4908L20.1265 21.6467L11.7688 13.3333Z" fill="#1271FF"/>
</g>
<defs>
<clipPath id="clip0_260_933">
<rect width="24.0125" height="24" fill="white" transform="translate(8.22705 8)"/>
</clipPath>
</defs>
</svg>
