<svg width="25" height="25" viewBox="0 0 25 25" fill="none" xmlns="http://www.w3.org/2000/svg">
<path fill-rule="evenodd" clip-rule="evenodd" d="M5.96755 1.98679C4.798 1.98676 3.84993 2.93484 3.84996 4.10438L3.85039 19.7911C3.85042 20.9606 4.79855 21.9087 5.96809 21.9088L19.6425 21.9091C20.8121 21.9092 21.7601 20.9611 21.7601 19.7916L21.7597 4.10487C21.7596 2.93532 20.8115 1.98719 19.642 1.98716L5.96755 1.98679ZM13.0066 8.46531L15.2592 10.8536L18.8659 7.02986L17.9649 6.07455L15.2599 8.94234L13.9083 7.50938L13.0066 8.46531ZM5.92451 8.12647L11.719 8.12446L11.7186 9.48963L8.82133 9.49064L5.92407 9.49164L5.92451 8.12647ZM17.2549 11.5355L18.1559 12.4908L16.4814 14.2661L18.1548 16.0402L17.2531 16.9962L15.5797 15.222L13.9052 16.9973L13.0041 16.042L14.6787 14.2667L13.0053 12.4926L13.907 11.5366L15.5803 13.3108L17.2549 11.5355ZM5.92273 13.5872L11.7172 13.5851L11.7168 14.9503L5.92229 14.9523L5.92273 13.5872Z" fill="white"/>
</svg>
