<svg xmlns="http://www.w3.org/2000/svg" width="24" height="24" viewBox="0 0 24 24">
  <g id="Open_eye" data-name="Open eye" transform="translate(-3261 -1232)">
    <rect id="Rectangle_18" data-name="Rectangle 18" width="24" height="24" transform="translate(3261 1232)" fill="none"/>
    <path id="el_eye-open" d="M11.7,9A2.648,2.648,0,0,1,9,11.588,2.648,2.648,0,0,1,6.293,9,2.648,2.648,0,0,1,9,6.41,2.648,2.648,0,0,1,11.7,9ZM9,3.608a11.048,11.048,0,0,0-4.664,1.1A11.878,11.878,0,0,0,1.161,7.023,3.919,3.919,0,0,0,0,9a3.952,3.952,0,0,0,1.161,1.976,11.7,11.7,0,0,0,3.176,2.313A10.932,10.932,0,0,0,9,14.392a11.1,11.1,0,0,0,4.663-1.1,11.884,11.884,0,0,0,3.176-2.313A3.919,3.919,0,0,0,18,9a3.951,3.951,0,0,0-1.161-1.976,11.7,11.7,0,0,0-3.176-2.312A11,11,0,0,0,9,3.608ZM9,4.947A4.15,4.15,0,0,1,13.239,9,4.15,4.15,0,0,1,9,13.054,4.15,4.15,0,0,1,4.759,9,4.15,4.15,0,0,1,9,4.947Z" transform="translate(3264 1235.5)" fill="#a6a6a6"/>
  </g>
</svg>
