<svg xmlns="http://www.w3.org/2000/svg" width="24" height="24" viewBox="0 0 24 24">
  <g id="Group_105" data-name="Group 105" transform="translate(1552.898 -1164.102)">
    <path id="Path_216" data-name="Path 216" d="M0,0H24V24H0Z" transform="translate(-1552.898 1164.102)" fill="none"/>
    <g id="key_icon-icons.com_69360" transform="translate(-1552.898 1176.102) rotate(-45)">
      <g id="Group_104" data-name="Group 104" transform="translate(0 0)">
        <path id="Path_214" data-name="Path 214" d="M16.492,15.039l-.851.824a1.658,1.658,0,0,1-2.128,0l-.426-.412-1.17,1.133a1.658,1.658,0,0,1-2.128,0l-.851-.824a1.346,1.346,0,0,1,0-2.06l1.17-1.133L7.449,9.992a4.74,4.74,0,0,1-2.021.412A5.449,5.449,0,0,1,1.066,8.241,4.987,4.987,0,0,1,.853,2.369,5.755,5.755,0,0,1,5.427,0a5.31,5.31,0,0,1,3.83,1.545,5.128,5.128,0,0,1,1.17,5.562l6.064,5.871A1.347,1.347,0,0,1,16.492,15.039ZM15.853,13.7,9.47,7.52A.474.474,0,0,1,9.364,6.9a4.162,4.162,0,0,0-.851-4.738A4.333,4.333,0,0,0,5.427.927,4.314,4.314,0,0,0,1.81,2.884a4.08,4.08,0,0,0,.106,4.738A4.335,4.335,0,0,0,5.427,9.374a2.836,2.836,0,0,0,1.915-.618c.213-.1.532-.1.638.1l3.3,3.193c0,.1.106.206.106.412s0,.309-.106.412l-1.6,1.545c-.213.1-.213.412,0,.618l.851.824c.106.206.426.206.638,0l1.6-1.545a.526.526,0,0,1,.745,0l.851.824c.106.206.426.206.638,0l.851-.824c.213-.1.213-.412,0-.618Z" transform="translate(0 0)" fill="#a6a6a6"/>
        <path id="Path_215" data-name="Path 215" d="M.638,3.616A2.1,2.1,0,0,1,0,2.127,2.1,2.1,0,0,1,.638.638,2.1,2.1,0,0,1,2.127,0,2.1,2.1,0,0,1,3.616.638a2.1,2.1,0,0,1,.638,1.489,2.1,2.1,0,0,1-.638,1.489A2.055,2.055,0,0,1,.638,3.616ZM2.871,1.382a1.028,1.028,0,0,0-1.489,0,.965.965,0,0,0-.319.744.965.965,0,0,0,.319.744.965.965,0,0,0,.744.319.965.965,0,0,0,.744-.319.965.965,0,0,0,.319-.744A.965.965,0,0,0,2.871,1.382Z" transform="translate(3.3 3.16)" fill="#a6a6a6"/>
      </g>
    </g>
  </g>
</svg>
